<mxfile host="app.diagrams.net" agent="Mozilla/5.0 (Windows NT 10.0; Win64; x64) AppleWebKit/537.36 (KHTML, like Gecko) Chrome/136.0.0.0 Safari/537.36" version="27.0.6">
  <diagram name="Page-1" id="tkgS58if5Lm40kCOWP3V">
    <mxGraphModel dx="1106" dy="605" grid="1" gridSize="10" guides="1" tooltips="1" connect="1" arrows="1" fold="1" page="1" pageScale="1" pageWidth="850" pageHeight="1100" math="0" shadow="0">
      <root>
        <mxCell id="0" />
        <mxCell id="1" parent="0" />
        <mxCell id="dcRLv6G-pKUNUfPiL1WB-2" style="edgeStyle=orthogonalEdgeStyle;rounded=0;orthogonalLoop=1;jettySize=auto;html=1;" edge="1" parent="1" source="dcRLv6G-pKUNUfPiL1WB-1">
          <mxGeometry relative="1" as="geometry">
            <mxPoint x="435" y="250" as="targetPoint" />
          </mxGeometry>
        </mxCell>
        <mxCell id="dcRLv6G-pKUNUfPiL1WB-1" value="Start" style="ellipse;whiteSpace=wrap;html=1;fillColor=#0050ef;fontColor=#ffffff;strokeColor=#001DBC;" vertex="1" parent="1">
          <mxGeometry x="340" y="100" width="190" height="80" as="geometry" />
        </mxCell>
        <mxCell id="dcRLv6G-pKUNUfPiL1WB-4" style="edgeStyle=orthogonalEdgeStyle;rounded=0;orthogonalLoop=1;jettySize=auto;html=1;exitX=0.5;exitY=1;exitDx=0;exitDy=0;" edge="1" parent="1" source="dcRLv6G-pKUNUfPiL1WB-3" target="dcRLv6G-pKUNUfPiL1WB-5">
          <mxGeometry relative="1" as="geometry">
            <mxPoint x="440" y="390" as="targetPoint" />
          </mxGeometry>
        </mxCell>
        <mxCell id="dcRLv6G-pKUNUfPiL1WB-3" value="Input x" style="shape=parallelogram;perimeter=parallelogramPerimeter;whiteSpace=wrap;html=1;fixedSize=1;fillColor=light-dark(#a20025, #41b482);fontColor=#ffffff;strokeColor=#6F0000;" vertex="1" parent="1">
          <mxGeometry x="335" y="260" width="200" height="60" as="geometry" />
        </mxCell>
        <mxCell id="dcRLv6G-pKUNUfPiL1WB-13" style="edgeStyle=orthogonalEdgeStyle;rounded=0;orthogonalLoop=1;jettySize=auto;html=1;exitX=0;exitY=0.5;exitDx=0;exitDy=0;" edge="1" parent="1" source="dcRLv6G-pKUNUfPiL1WB-5">
          <mxGeometry relative="1" as="geometry">
            <mxPoint x="280" y="390" as="targetPoint" />
          </mxGeometry>
        </mxCell>
        <mxCell id="dcRLv6G-pKUNUfPiL1WB-14" value="No" style="edgeLabel;html=1;align=center;verticalAlign=middle;resizable=0;points=[];" vertex="1" connectable="0" parent="dcRLv6G-pKUNUfPiL1WB-13">
          <mxGeometry x="-0.1553" y="-5" relative="1" as="geometry">
            <mxPoint as="offset" />
          </mxGeometry>
        </mxCell>
        <mxCell id="dcRLv6G-pKUNUfPiL1WB-5" value="x%2==0" style="rhombus;whiteSpace=wrap;html=1;fillColor=#6a00ff;fontColor=#ffffff;strokeColor=#3700CC;" vertex="1" parent="1">
          <mxGeometry x="360" y="350" width="160" height="80" as="geometry" />
        </mxCell>
        <mxCell id="dcRLv6G-pKUNUfPiL1WB-6" value="Yes" style="endArrow=classic;html=1;rounded=0;" edge="1" parent="1">
          <mxGeometry relative="1" as="geometry">
            <mxPoint x="550" y="389.5" as="sourcePoint" />
            <mxPoint x="650" y="389.5" as="targetPoint" />
          </mxGeometry>
        </mxCell>
        <mxCell id="dcRLv6G-pKUNUfPiL1WB-11" style="edgeStyle=orthogonalEdgeStyle;rounded=0;orthogonalLoop=1;jettySize=auto;html=1;" edge="1" parent="1" source="dcRLv6G-pKUNUfPiL1WB-10" target="dcRLv6G-pKUNUfPiL1WB-12">
          <mxGeometry relative="1" as="geometry">
            <mxPoint x="700" y="510" as="targetPoint" />
          </mxGeometry>
        </mxCell>
        <mxCell id="dcRLv6G-pKUNUfPiL1WB-10" value="output=&quot;even&quot;" style="shape=parallelogram;perimeter=parallelogramPerimeter;whiteSpace=wrap;html=1;fixedSize=1;fillColor=#0050ef;fontColor=#ffffff;strokeColor=#001DBC;" vertex="1" parent="1">
          <mxGeometry x="640" y="370" width="120" height="70" as="geometry" />
        </mxCell>
        <mxCell id="dcRLv6G-pKUNUfPiL1WB-12" value="end" style="ellipse;whiteSpace=wrap;html=1;fillColor=#008a00;fontColor=#ffffff;strokeColor=#005700;" vertex="1" parent="1">
          <mxGeometry x="640" y="470" width="120" height="80" as="geometry" />
        </mxCell>
        <mxCell id="dcRLv6G-pKUNUfPiL1WB-16" style="edgeStyle=orthogonalEdgeStyle;rounded=0;orthogonalLoop=1;jettySize=auto;html=1;exitX=0.5;exitY=1;exitDx=0;exitDy=0;" edge="1" parent="1" source="dcRLv6G-pKUNUfPiL1WB-15">
          <mxGeometry relative="1" as="geometry">
            <mxPoint x="220" y="450" as="targetPoint" />
          </mxGeometry>
        </mxCell>
        <mxCell id="dcRLv6G-pKUNUfPiL1WB-15" value="output=&quot;odd&quot;" style="shape=parallelogram;perimeter=parallelogramPerimeter;whiteSpace=wrap;html=1;fixedSize=1;fillColor=#008a00;fontColor=#ffffff;strokeColor=#005700;" vertex="1" parent="1">
          <mxGeometry x="160" y="360" width="120" height="60" as="geometry" />
        </mxCell>
        <mxCell id="dcRLv6G-pKUNUfPiL1WB-18" value="end" style="ellipse;whiteSpace=wrap;html=1;fillColor=#60a917;fontColor=#ffffff;strokeColor=#2D7600;" vertex="1" parent="1">
          <mxGeometry x="170" y="450" width="120" height="80" as="geometry" />
        </mxCell>
      </root>
    </mxGraphModel>
  </diagram>
</mxfile>
